<svg width="210" height="114" viewBox="0 0 210 114" fill="none" xmlns="http://www.w3.org/2000/svg">
<path d="M19.6243 37.6487C19.6243 26.0872 30.6384 25.1295 30.6384 25.1295H62.86C62.86 25.1295 74.4215 25.1295 74.4215 37.6487C74.4215 40.7525 73.7108 43.028 72.6419 44.695M19.6243 37.6487C19.6243 40.7593 20.4216 43.0331 21.5872 44.695M19.6243 37.6487H12.0991M12.0991 37.6487C12.0991 20.888 30.6384 19.9987 30.6384 19.9987H62.86C62.86 19.9987 83.5885 19.9987 83.5885 37.6487C83.5885 55.2987 62.86 54.4094 62.86 54.4094H57.866V82.2527C57.866 82.2527 58.2765 92.988 47.0571 93.13C35.8377 93.272 35.8377 82.2527 35.8377 82.2527V62.8923M12.0991 37.6487C12.0991 54.4094 30.6384 54.4094 30.6384 54.4094H35.8377V62.8923M49.041 44.695V49.2102V82.2527C49.041 82.2527 49.041 85.1943 46.4414 85.1943C43.8417 85.1943 43.8417 82.2527 43.8417 82.2527V49.2102V44.695M49.041 44.695C49.041 44.695 49.041 37.6487 57.866 37.6487C66.691 37.6487 68.4013 48.2304 68.4013 48.2304M49.041 44.695C49.041 44.695 50.0882 32.3126 35.8377 32.3126C21.5872 32.3126 21.5872 44.695 21.5872 44.695M68.4013 48.2304C65.5929 49.4365 62.86 49.2102 62.86 49.2102H57.866H53.5561V54.4094V82.2527C53.5561 82.2527 54.2402 89.4358 47.0571 89.4358C39.8739 89.4358 39.8739 82.2527 39.8739 82.2527V62.8923M68.4013 48.2304C69.9371 47.5708 71.4955 46.4828 72.6419 44.695M43.8417 44.695C43.8417 44.695 45.5451 37.6487 35.8377 37.6487C26.1303 37.6487 26.1303 48.2304 26.1303 48.2304M43.8417 44.695C43.8417 44.695 43.8417 32.3126 57.866 32.3126C71.8903 32.3126 72.6419 44.695 72.6419 44.695M26.1303 48.2304C28.5135 49.2102 30.6384 49.2102 30.6384 49.2102H35.8377H39.8739V54.4094V62.8923M26.1303 48.2304C24.5476 47.5797 22.8509 46.4969 21.5872 44.695M35.8377 62.8923H39.8739" stroke="#CCF186" stroke-width="2.9299"/>
<g clip-path="url(#clip0_1_11)">
<path d="M99.6646 75.49H105.946V77.3951H97.3218V59.4506H99.6646V75.49ZM110.134 70.2894C110.134 68.8477 110.425 67.5862 111.009 66.5049C111.593 65.4064 112.391 64.5568 113.403 63.9561C114.433 63.3553 115.575 63.055 116.827 63.055C118.063 63.055 119.136 63.321 120.046 63.8531C120.955 64.3852 121.633 65.0545 122.08 65.8612V63.2867H124.448V77.3951H122.08V74.7691C121.616 75.5929 120.921 76.2795 119.994 76.8287C119.084 77.3608 118.02 77.6268 116.802 77.6268C115.549 77.6268 114.416 77.3179 113.403 76.7C112.391 76.0821 111.593 75.2153 111.009 74.0997C110.425 72.9841 110.134 71.714 110.134 70.2894ZM122.08 70.3152C122.08 69.251 121.865 68.3242 121.436 67.5347C121.007 66.7451 120.423 66.1444 119.685 65.7325C118.964 65.3034 118.166 65.0889 117.291 65.0889C116.416 65.0889 115.617 65.2948 114.897 65.7067C114.176 66.1187 113.601 66.7194 113.172 67.5089C112.743 68.2984 112.528 69.2253 112.528 70.2894C112.528 71.3707 112.743 72.3147 113.172 73.1214C113.601 73.9109 114.176 74.5202 114.897 74.9493C115.617 75.3612 116.416 75.5672 117.291 75.5672C118.166 75.5672 118.964 75.3612 119.685 74.9493C120.423 74.5202 121.007 73.9109 121.436 73.1214C121.865 72.3147 122.08 71.3793 122.08 70.3152ZM133.325 65.9127C133.805 65.0717 134.509 64.3852 135.436 63.8531C136.363 63.321 137.418 63.055 138.602 63.055C139.872 63.055 141.014 63.3553 142.026 63.9561C143.039 64.5568 143.837 65.4064 144.421 66.5049C145.004 67.5862 145.296 68.8477 145.296 70.2894C145.296 71.714 145.004 72.9841 144.421 74.0997C143.837 75.2153 143.031 76.0821 142.001 76.7C140.988 77.3179 139.855 77.6268 138.602 77.6268C137.384 77.6268 136.311 77.3608 135.384 76.8287C134.475 76.2966 133.788 75.6187 133.325 74.7948V77.3951H130.982V58.3436H133.325V65.9127ZM142.902 70.2894C142.902 69.2253 142.687 68.2984 142.258 67.5089C141.829 66.7194 141.246 66.1187 140.508 65.7067C139.787 65.2948 138.989 65.0889 138.113 65.0889C137.255 65.0889 136.457 65.3034 135.719 65.7325C134.998 66.1444 134.414 66.7537 133.968 67.5604C133.539 68.3499 133.325 69.2682 133.325 70.3152C133.325 71.3793 133.539 72.3147 133.968 73.1214C134.414 73.9109 134.998 74.5202 135.719 74.9493C136.457 75.3612 137.255 75.5672 138.113 75.5672C138.989 75.5672 139.787 75.3612 140.508 74.9493C141.246 74.5202 141.829 73.9109 142.258 73.1214C142.687 72.3147 142.902 71.3707 142.902 70.2894ZM155.949 77.6268C154.868 77.6268 153.898 77.4466 153.04 77.0862C152.182 76.7086 151.504 76.1937 151.006 75.5415C150.508 74.8721 150.234 74.1083 150.182 73.2501H152.602C152.671 73.9538 152.997 74.5288 153.58 74.9751C154.181 75.4213 154.962 75.6444 155.923 75.6444C156.816 75.6444 157.52 75.4471 158.034 75.0523C158.549 74.6575 158.807 74.1598 158.807 73.5591C158.807 72.9412 158.532 72.4863 157.983 72.1946C157.434 71.8856 156.584 71.5853 155.434 71.2935C154.387 71.0189 153.529 70.7442 152.86 70.4696C152.207 70.1778 151.641 69.7573 151.16 69.2081C150.697 68.6417 150.465 67.9037 150.465 66.994C150.465 66.2731 150.68 65.6123 151.109 65.0116C151.538 64.4109 152.147 63.9389 152.937 63.5956C153.726 63.2352 154.627 63.055 155.64 63.055C157.202 63.055 158.464 63.4497 159.425 64.2393C160.386 65.0288 160.901 66.1101 160.969 67.4832H158.627C158.575 66.7451 158.275 66.153 157.725 65.7067C157.193 65.2605 156.473 65.0374 155.563 65.0374C154.722 65.0374 154.052 65.2176 153.555 65.578C153.057 65.9385 152.808 66.4105 152.808 66.994C152.808 67.4574 152.954 67.8436 153.246 68.1526C153.555 68.4443 153.932 68.6846 154.379 68.8734C154.842 69.0451 155.477 69.2424 156.284 69.4656C157.296 69.7402 158.12 70.0148 158.755 70.2894C159.39 70.5469 159.931 70.9416 160.377 71.4737C160.841 72.0058 161.081 72.7009 161.098 73.5591C161.098 74.3314 160.884 75.0265 160.454 75.6444C160.025 76.2623 159.416 76.7515 158.627 77.1119C157.854 77.4552 156.962 77.6268 155.949 77.6268Z" fill="#BBDC2F"/>
<path d="M102.342 41.3215C102.703 40.6522 103.217 40.1287 103.887 39.7511C104.573 39.3563 105.389 39.1589 106.333 39.1589C107.465 39.1589 108.487 39.4593 109.396 40.06C110.306 40.6436 111.018 41.5018 111.533 42.6345C112.065 43.7502 112.331 45.0718 112.331 46.5993C112.331 48.1269 112.065 49.4571 111.533 50.5898C111.018 51.7055 110.306 52.5637 109.396 53.1644C108.487 53.7479 107.465 54.0397 106.333 54.0397C105.389 54.0397 104.573 53.8509 103.887 53.4733C103.217 53.0786 102.703 52.5465 102.342 51.8771V53.8595H96.6267V34.808H102.342V41.3215ZM106.539 46.5993C106.539 45.827 106.341 45.2262 105.946 44.7972C105.552 44.3681 105.045 44.1535 104.428 44.1535C103.81 44.1535 103.303 44.3681 102.909 44.7972C102.514 45.2262 102.316 45.827 102.316 46.5993C102.316 47.3717 102.514 47.9724 102.909 48.4015C103.303 48.8306 103.81 49.0451 104.428 49.0451C105.045 49.0451 105.552 48.8306 105.946 48.4015C106.341 47.9724 106.539 47.3717 106.539 46.5993Z" fill="#F5FF65"/>
<path d="M122.415 41.3215C122.776 40.6522 123.291 40.1287 123.96 39.7511C124.647 39.3563 125.462 39.1589 126.406 39.1589C127.539 39.1589 128.56 39.4593 129.47 40.06C130.379 40.6436 131.092 41.5018 131.606 42.6345C132.139 43.7502 132.405 45.0718 132.405 46.5993C132.405 48.1269 132.139 49.4571 131.606 50.5898C131.092 51.7055 130.379 52.5637 129.47 53.1644C128.56 53.7479 127.539 54.0397 126.406 54.0397C125.462 54.0397 124.647 53.8509 123.96 53.4733C123.291 53.0786 122.776 52.5465 122.415 51.8771V53.8595H116.7V34.808H122.415V41.3215ZM126.612 46.5993C126.612 45.827 126.415 45.2262 126.02 44.7972C125.625 44.3681 125.119 44.1535 124.501 44.1535C123.883 44.1535 123.377 44.3681 122.982 44.7972C122.587 45.2262 122.39 45.827 122.39 46.5993C122.39 47.3717 122.587 47.9724 122.982 48.4015C123.377 48.8306 123.883 49.0451 124.501 49.0451C125.119 49.0451 125.625 48.8306 126.02 48.4015C126.415 47.9724 126.612 47.3717 126.612 46.5993Z" fill="#84253E"/>
<path d="M145.14 38.3093C144.832 38.275 144.617 38.2579 144.497 38.2579C144.068 38.2579 143.742 38.3437 143.519 38.5153C143.295 38.6698 143.141 38.9444 143.055 39.3392H145.14V44.102H143.004V53.8595H137.288V44.102H135.743V39.3392H137.288C137.322 37.4512 137.915 35.9923 139.065 34.9625C140.232 33.9155 141.862 33.392 143.956 33.392C144.196 33.392 144.591 33.4092 145.14 33.4435V38.3093Z" fill="#30C99B"/>
<circle cx="170.488" cy="71.2425" r="5.5054" fill="#9D53C3"/>
</g>
<path d="M99.1761 83.7652V84.0798H98.5505V86.1157H98.1649V84.0798H97.5359V83.7652H99.1761ZM100.869 84.2218C101.011 84.2218 101.137 84.2522 101.247 84.3131C101.36 84.374 101.448 84.4642 101.511 84.5837C101.577 84.7032 101.609 84.8475 101.609 85.0165V86.1157H101.227V85.074C101.227 84.9072 101.185 84.7798 101.102 84.6919C101.019 84.6017 100.905 84.5566 100.76 84.5566C100.616 84.5566 100.501 84.6017 100.415 84.6919C100.332 84.7798 100.29 84.9072 100.29 85.074V86.1157H99.9047V83.6131H100.29V84.4687C100.356 84.3898 100.438 84.3289 100.537 84.2861C100.639 84.2432 100.749 84.2218 100.869 84.2218ZM102.635 84.0054C102.565 84.0054 102.507 83.9817 102.459 83.9343C102.412 83.887 102.388 83.8284 102.388 83.7585C102.388 83.6886 102.412 83.63 102.459 83.5826C102.507 83.5353 102.565 83.5116 102.635 83.5116C102.703 83.5116 102.76 83.5353 102.808 83.5826C102.855 83.63 102.879 83.6886 102.879 83.7585C102.879 83.8284 102.855 83.887 102.808 83.9343C102.76 83.9817 102.703 84.0054 102.635 84.0054ZM102.825 84.2522V86.1157H102.439V84.2522H102.825ZM104.609 84.2218C104.756 84.2218 104.887 84.2522 105.002 84.3131C105.119 84.374 105.21 84.4642 105.275 84.5837C105.341 84.7032 105.374 84.8475 105.374 85.0165V86.1157H104.991V85.074C104.991 84.9072 104.95 84.7798 104.866 84.6919C104.783 84.6017 104.669 84.5566 104.525 84.5566C104.38 84.5566 104.265 84.6017 104.18 84.6919C104.096 84.7798 104.055 84.9072 104.055 85.074V86.1157H103.669V84.2522H104.055V84.4653C104.118 84.3886 104.198 84.3289 104.295 84.2861C104.394 84.2432 104.499 84.2218 104.609 84.2218ZM106.941 85.1856L107.8 86.1157H107.279L106.589 85.3142V86.1157H106.204V83.6131H106.589V85.0673L107.265 84.2522H107.8L106.941 85.1856ZM110.155 85.4291C110.074 85.4291 110 85.41 109.932 85.3716C109.867 85.3311 109.814 85.2781 109.773 85.2127C109.735 85.1451 109.716 85.0707 109.716 84.9895C109.716 84.8655 109.758 84.7607 109.844 84.675C109.93 84.5893 110.033 84.5465 110.155 84.5465C110.281 84.5465 110.387 84.5893 110.473 84.675C110.559 84.7607 110.602 84.8655 110.602 84.9895C110.602 85.1135 110.559 85.2183 110.473 85.304C110.387 85.3874 110.281 85.4291 110.155 85.4291ZM114.006 84.9083C114.132 84.9309 114.239 84.9974 114.327 85.1079C114.415 85.2183 114.459 85.3435 114.459 85.4832C114.459 85.6027 114.428 85.711 114.365 85.8079C114.304 85.9026 114.215 85.9781 114.097 86.0345C113.98 86.0886 113.844 86.1157 113.688 86.1157H112.748V83.7652H113.644C113.804 83.7652 113.942 83.7923 114.057 83.8464C114.172 83.9005 114.259 83.9738 114.317 84.0662C114.376 84.1564 114.405 84.2579 114.405 84.3706C114.405 84.5059 114.369 84.6186 114.297 84.7088C114.225 84.799 114.128 84.8655 114.006 84.9083ZM113.134 84.7528H113.61C113.737 84.7528 113.835 84.7246 113.905 84.6682C113.977 84.6096 114.013 84.5262 114.013 84.418C114.013 84.312 113.977 84.2297 113.905 84.1711C113.835 84.1102 113.737 84.0798 113.61 84.0798H113.134V84.7528ZM113.654 85.8011C113.785 85.8011 113.888 85.7696 113.962 85.7065C114.036 85.6433 114.074 85.5554 114.074 85.4427C114.074 85.3277 114.034 85.2364 113.955 85.1687C113.876 85.1011 113.772 85.0673 113.641 85.0673H113.134V85.8011H113.654ZM116.904 84.2522V86.1157H116.518V85.8958C116.458 85.9725 116.377 86.0334 116.278 86.0785C116.181 86.1213 116.078 86.1427 115.967 86.1427C115.821 86.1427 115.689 86.1123 115.571 86.0514C115.456 85.9905 115.365 85.9003 115.298 85.7809C115.232 85.6614 115.199 85.5171 115.199 85.348V84.2522H115.582V85.2905C115.582 85.4573 115.623 85.5858 115.707 85.676C115.79 85.7639 115.904 85.8079 116.048 85.8079C116.193 85.8079 116.306 85.7639 116.39 85.676C116.476 85.5858 116.518 85.4573 116.518 85.2905V84.2522H116.904ZM117.947 84.0054C117.877 84.0054 117.818 83.9817 117.771 83.9343C117.724 83.887 117.7 83.8284 117.7 83.7585C117.7 83.6886 117.724 83.63 117.771 83.5826C117.818 83.5353 117.877 83.5116 117.947 83.5116C118.015 83.5116 118.072 83.5353 118.119 83.5826C118.167 83.63 118.19 83.6886 118.19 83.7585C118.19 83.8284 118.167 83.887 118.119 83.9343C118.072 83.9817 118.015 84.0054 117.947 84.0054ZM118.136 84.2522V86.1157H117.751V84.2522H118.136ZM119.366 83.6131V86.1157H118.981V83.6131H119.366ZM120.082 85.1755C120.082 84.9884 120.12 84.8227 120.197 84.6784C120.276 84.5341 120.382 84.4225 120.515 84.3436C120.65 84.2624 120.8 84.2218 120.965 84.2218C121.087 84.2218 121.206 84.2489 121.323 84.303C121.443 84.3548 121.537 84.4247 121.607 84.5126V83.6131H121.996V86.1157H121.607V85.835C121.544 85.9251 121.456 85.9996 121.344 86.0582C121.233 86.1168 121.106 86.1461 120.961 86.1461C120.799 86.1461 120.65 86.1055 120.515 86.0244C120.382 85.9409 120.276 85.8259 120.197 85.6794C120.12 85.5306 120.082 85.3626 120.082 85.1755ZM121.607 85.1823C121.607 85.0537 121.58 84.9421 121.526 84.8475C121.474 84.7528 121.406 84.6806 121.32 84.631C121.234 84.5814 121.142 84.5566 121.043 84.5566C120.943 84.5566 120.851 84.5814 120.765 84.631C120.68 84.6784 120.61 84.7494 120.556 84.8441C120.504 84.9365 120.478 85.047 120.478 85.1755C120.478 85.304 120.504 85.4167 120.556 85.5137C120.61 85.6106 120.68 85.685 120.765 85.7369C120.853 85.7865 120.946 85.8113 121.043 85.8113C121.142 85.8113 121.234 85.7865 121.32 85.7369C121.406 85.6873 121.474 85.6151 121.526 85.5204C121.58 85.4235 121.607 85.3108 121.607 85.1823ZM124.582 85.4291C124.501 85.4291 124.426 85.41 124.358 85.3716C124.293 85.3311 124.24 85.2781 124.2 85.2127C124.161 85.1451 124.142 85.0707 124.142 84.9895C124.142 84.8655 124.185 84.7607 124.271 84.675C124.356 84.5893 124.46 84.5465 124.582 84.5465C124.708 84.5465 124.814 84.5893 124.9 84.675C124.985 84.7607 125.028 84.8655 125.028 84.9895C125.028 85.1135 124.985 85.2183 124.9 85.304C124.814 85.3874 124.708 85.4291 124.582 85.4291ZM127.942 83.7652C128.192 83.7652 128.411 83.8137 128.598 83.9107C128.788 84.0054 128.933 84.1429 129.035 84.3233C129.138 84.5014 129.19 84.7099 129.19 84.9489C129.19 85.1879 129.138 85.3953 129.035 85.5712C128.933 85.747 128.788 85.8823 128.598 85.977C128.411 86.0694 128.192 86.1157 127.942 86.1157H127.175V83.7652H127.942ZM127.942 85.8011C128.217 85.8011 128.428 85.7267 128.575 85.5779C128.721 85.4291 128.794 85.2195 128.794 84.9489C128.794 84.6761 128.721 84.463 128.575 84.3097C128.428 84.1564 128.217 84.0798 127.942 84.0798H127.56V85.8011H127.942ZM131.618 85.1383C131.618 85.2082 131.614 85.2713 131.605 85.3277H130.181C130.192 85.4765 130.247 85.596 130.347 85.6862C130.446 85.7763 130.568 85.8214 130.712 85.8214C130.919 85.8214 131.066 85.7346 131.152 85.561H131.568C131.511 85.7324 131.409 85.8733 131.26 85.9838C131.113 86.092 130.931 86.1461 130.712 86.1461C130.534 86.1461 130.374 86.1066 130.232 86.0277C130.092 85.9466 129.981 85.8338 129.9 85.6895C129.821 85.543 129.782 85.3739 129.782 85.1823C129.782 84.9906 129.82 84.8227 129.897 84.6784C129.976 84.5318 130.085 84.4191 130.225 84.3402C130.367 84.2613 130.529 84.2218 130.712 84.2218C130.888 84.2218 131.044 84.2601 131.182 84.3368C131.32 84.4134 131.427 84.5217 131.503 84.6614C131.58 84.799 131.618 84.9579 131.618 85.1383ZM131.216 85.0165C131.214 84.8745 131.163 84.7607 131.064 84.675C130.964 84.5893 130.842 84.5465 130.695 84.5465C130.562 84.5465 130.448 84.5893 130.353 84.675C130.259 84.7584 130.202 84.8723 130.184 85.0165H131.216ZM132.721 84.5262C132.787 84.4405 132.876 84.3684 132.989 84.3097C133.101 84.2511 133.229 84.2218 133.371 84.2218C133.533 84.2218 133.681 84.2624 133.814 84.3436C133.949 84.4225 134.055 84.5341 134.132 84.6784C134.208 84.8227 134.247 84.9884 134.247 85.1755C134.247 85.3626 134.208 85.5306 134.132 85.6794C134.055 85.8259 133.949 85.9409 133.814 86.0244C133.681 86.1055 133.533 86.1461 133.371 86.1461C133.229 86.1461 133.102 86.1179 132.992 86.0616C132.881 86.0029 132.791 85.9308 132.721 85.8451V87.0017H132.336V84.2522H132.721V84.5262ZM133.854 85.1755C133.854 85.047 133.827 84.9365 133.773 84.8441C133.721 84.7494 133.651 84.6784 133.563 84.631C133.478 84.5814 133.385 84.5566 133.286 84.5566C133.189 84.5566 133.097 84.5814 133.009 84.631C132.923 84.6806 132.853 84.7528 132.799 84.8475C132.747 84.9421 132.721 85.0537 132.721 85.1823C132.721 85.3108 132.747 85.4235 132.799 85.5204C132.853 85.6151 132.923 85.6873 133.009 85.7369C133.097 85.7865 133.189 85.8113 133.286 85.8113C133.385 85.8113 133.478 85.7865 133.563 85.7369C133.651 85.685 133.721 85.6106 133.773 85.5137C133.827 85.4167 133.854 85.304 133.854 85.1755ZM135.352 83.6131V86.1157H134.966V83.6131H135.352ZM137.004 86.1461C136.828 86.1461 136.669 86.1066 136.527 86.0277C136.385 85.9466 136.274 85.8338 136.193 85.6895C136.111 85.543 136.071 85.3739 136.071 85.1823C136.071 84.9929 136.113 84.8249 136.196 84.6784C136.279 84.5318 136.393 84.4191 136.538 84.3402C136.682 84.2613 136.843 84.2218 137.021 84.2218C137.199 84.2218 137.36 84.2613 137.505 84.3402C137.649 84.4191 137.763 84.5318 137.846 84.6784C137.93 84.8249 137.971 84.9929 137.971 85.1823C137.971 85.3716 137.929 85.5396 137.843 85.6862C137.757 85.8327 137.64 85.9466 137.491 86.0277C137.345 86.1066 137.182 86.1461 137.004 86.1461ZM137.004 85.8113C137.103 85.8113 137.196 85.7876 137.282 85.7403C137.369 85.6929 137.44 85.6219 137.495 85.5272C137.549 85.4325 137.576 85.3175 137.576 85.1823C137.576 85.047 137.55 84.9331 137.498 84.8407C137.446 84.746 137.377 84.675 137.292 84.6276C137.206 84.5803 137.114 84.5566 137.014 84.5566C136.915 84.5566 136.823 84.5803 136.737 84.6276C136.654 84.675 136.587 84.746 136.538 84.8407C136.488 84.9331 136.463 85.047 136.463 85.1823C136.463 85.3829 136.514 85.5385 136.615 85.649C136.719 85.7572 136.849 85.8113 137.004 85.8113ZM140.368 84.2522L139.225 86.9916H138.826L139.205 86.0852L138.471 84.2522H138.9L139.425 85.6726L139.969 84.2522H140.368Z" fill="white"/>
<defs>
<clipPath id="clip0_1_11">
<rect width="86.0218" height="55.7422" fill="white" transform="translate(93.5502 25.2724)"/>
</clipPath>
</defs>
</svg>
